<?xml version="1.0" encoding="UTF-8" standalone="no"?>
<svg width="191px" height="231px" viewBox="0 0 191 231" version="1.1" xmlns="http://www.w3.org/2000/svg" xmlns:xlink="http://www.w3.org/1999/xlink">
    <!-- Generator: Sketch 39.1 (31720) - http://www.bohemiancoding.com/sketch -->
    <title>Group</title>
    <desc>Created with Sketch.</desc>
    <defs></defs>
    <g id="Page-1" stroke="none" stroke-width="1" fill="none" fill-rule="evenodd">
        <g id="审核通过的付费的界面" transform="translate(-280.000000, -254.000000)" fill="#231F20">
            <g id="Group" transform="translate(280.000000, 254.000000)">
                <g id="user-19">
                    <path d="M142.751463,170.751743 C138.442881,168.485759 127.834692,162.484708 123.265173,158.179051 L123.265173,146.478374 C137.921009,138.113112 147.942695,123.104465 151.145313,104.732956 C159.447521,102.359597 166.674151,94.5803314 166.674151,87.4246207 C166.674151,80.1807938 161.220054,75.3743673 152.204492,74.3786059 L152.204492,69.3068678 C181.459731,68.3294038 183.415547,55.5318479 183.54288,54.021353 L183.743043,51.6436597 L181.630473,50.527521 C171.239811,45.0373512 170.727102,40.5159783 170.016642,34.2582826 C169.223705,27.2691741 168.236874,18.5711889 152.809806,9.66519169 C126.512647,-5.51776164 99.5262503,2.75842135 94.8949947,4.36618112 C73.9164004,4.46970563 58.3861152,9.68878565 48.7300293,19.8833019 C38.6683106,30.5063616 38.8048077,42.7188836 38.8588278,44.1663008 L38.8588278,74.3786059 C29.8432655,75.3743673 24.3891686,80.1812753 24.3891686,87.4246207 C24.3891686,94.5803314 31.6157987,102.359597 39.9180068,104.732956 C43.124001,123.111206 53.1471339,138.11889 67.7981462,146.478374 L67.7981462,158.17857 C63.2257339,162.486634 52.6083803,168.492501 48.3046213,170.755113 C1.28642837,185.983328 0.292845102,213.786642 0.273552223,214.965377 L0.273069901,230.673657 L190.790249,230.673657 L190.790249,215.004861 C190.783979,213.819385 190.088471,185.84032 142.751463,170.751743 L142.751463,170.751743 Z M95.5316597,163.262827 C85.7738038,163.262827 78.1222481,159.470941 75.0329758,157.666244 L75.0329758,149.923573 C81.3909441,152.383123 88.2601736,153.63264 95.5316597,153.63264 C102.804593,153.63264 109.675269,152.383123 116.030344,149.924536 L116.030344,157.675393 C112.958435,159.48346 105.362828,163.262827 95.5316597,163.262827 L95.5316597,163.262827 Z M159.439321,87.4251022 C159.439321,90.3748286 156.242973,94.3906167 152.076194,96.6074858 C152.155777,95.1807736 152.204492,81.6383227 152.204492,81.6383227 C158.652172,82.5406712 159.439321,85.8688639 159.439321,87.4251022 L159.439321,87.4251022 Z M53.9873388,24.8457375 C62.3199332,16.0480798 76.297624,11.5873771 95.532142,11.5873771 L96.2001579,11.585451 L96.8194594,11.350956 C97.0881127,11.249839 123.970328,1.35963664 149.188532,15.9171093 C161.458803,23.0015566 162.093539,28.5942879 162.828115,35.0710704 C163.541952,41.3634348 164.343571,48.4295847 175.241154,55.1928653 C173.204308,57.6283396 167.551494,61.5492704 152.18954,62.0827828 L147.911344,62.2089382 C147.859735,62.2185684 142.695514,63.1348807 133.969345,61.6007919 C125.884181,60.1788947 113.003291,56.3017813 97.5482479,45.9055126 C95.7824671,44.7219626 93.4186071,44.5943626 84.7609277,47.0698023 C80.1455887,48.3891379 73.9959836,50.3975135 66.4828542,53.0385924 C58.6436751,55.7942705 50.9115716,58.6823636 46.094622,60.5068026 L46.094622,44.0892593 L46.0888342,43.8875069 C46.082564,43.7863899 45.6180879,33.6814343 53.9873388,24.8457375 L53.9873388,24.8457375 Z M31.6239982,87.4251022 C31.6239982,85.8688639 32.41163,82.5406712 38.8588278,81.6383227 C38.8588278,81.6383227 38.9075423,95.1807736 38.9871254,96.6074858 C34.8203459,94.3901352 31.6239982,90.3748286 31.6239982,87.4251022 L31.6239982,87.4251022 Z M46.6854665,101.223235 C46.2928564,98.4352954 46.0936574,95.4133426 46.0936574,92.2401959 L46.0936574,68.2326204 C66.719192,60.3026427 89.304883,52.5431192 94.131479,52.3148838 C118.269282,68.3679245 136.916814,69.9511273 144.969662,69.7007425 L144.969662,92.2401959 C144.969662,95.4133426 144.770463,98.4352954 144.376888,101.231902 C141.889072,119.214832 132.270124,133.757859 117.97796,141.136509 C111.24378,144.636119 103.691583,146.41 95.532142,146.41 C87.3727012,146.41 79.8205037,144.635638 73.0776425,141.131694 C58.7936773,133.757378 49.1747302,119.214351 46.6854665,101.223235 L46.6854665,101.223235 Z M7.50789951,215.068902 C7.53490954,214.339415 8.84537834,191.027139 50.8199304,177.534283 C50.8199304,177.534283 65.2712614,169.987106 71.8998123,164.208993 C75.5307321,166.268409 82.695625,169.606232 91.9147272,170.335718 L91.9147272,223.451498 L7.50838183,223.451498 L7.50789951,215.068902 L7.50789951,215.068902 L7.50789951,215.068902 Z M183.55542,223.451498 L99.1490745,223.451498 L99.1490745,170.335718 C108.367694,169.606232 115.53307,166.268409 119.163989,164.208993 C125.79254,169.987106 140.259788,177.53958 140.259788,177.53958 C152.538258,181.422472 169.064539,188.738043 178.071901,201.536081 C183.241428,208.881025 183.543362,214.757365 183.55542,215.064568 L183.55542,223.451498 L183.55542,223.451498 Z" id="Shape"></path>
                    <path d="M95.5316597,115.111891 L105.178099,115.111891 L105.178099,107.88925 L99.1490745,107.88925 L99.1490745,92.2401959 L91.9142449,92.2401959 L91.9142449,111.500571 C91.9142449,113.494982 93.5338821,115.111891 95.5316597,115.111891 L95.5316597,115.111891 Z" id="Shape"></path>
                    <rect id="Rectangle-path" x="105.178099" y="180.115655" width="9.64643947" height="7.22264049"></rect>
                    <rect id="Rectangle-path" x="105.178099" y="194.560936" width="9.64643947" height="7.22264049"></rect>
                    <rect id="Rectangle-path" x="105.178099" y="209.006217" width="9.64643947" height="7.22264049"></rect>
                    <rect id="Rectangle-path" x="76.2387807" y="180.115655" width="9.64643947" height="7.22264049"></rect>
                    <rect id="Rectangle-path" x="76.2387807" y="194.560936" width="9.64643947" height="7.22264049"></rect>
                    <rect id="Rectangle-path" x="76.2387807" y="209.006217" width="9.64643947" height="7.22264049"></rect>
                </g>
            </g>
        </g>
    </g>
</svg>